<svg xmlns="http://www.w3.org/2000/svg" xmlns:xlink="http://www.w3.org/1999/xlink" width="500" zoomAndPan="magnify" viewBox="0 0 375 374.999991" height="500" preserveAspectRatio="xMidYMid meet" version="1.0"><defs><g/></defs><rect x="-37.5" width="450" fill="#ffffff" y="-37.499999" height="449.999989" fill-opacity="1"/><rect x="-37.5" width="450" fill="#ffffff" y="-37.499999" height="449.999989" fill-opacity="1"/><g fill="#945400" fill-opacity="1"><g transform="translate(6.433598, 244.499984)"><g><path d="M 35.640625 2.203125 C 29.335938 2.203125 23.945312 1.394531 19.46875 -0.21875 C 15 -1.832031 11.367188 -5.164062 8.578125 -10.21875 C 5.796875 -15.28125 4.40625 -22.582031 4.40625 -32.125 C 4.40625 -45.90625 6.75 -55.398438 11.4375 -60.609375 C 16.132812 -65.816406 22.296875 -68.421875 29.921875 -68.421875 C 32.117188 -68.421875 34.570312 -68.160156 37.28125 -67.640625 C 40 -67.128906 42.238281 -66.289062 44 -65.125 L 44 -80.296875 C 44 -83.234375 43.300781 -85.359375 41.90625 -86.671875 C 40.507812 -87.992188 38.128906 -88.65625 34.765625 -88.65625 C 30.648438 -88.65625 26.097656 -88.210938 21.109375 -87.328125 C 16.128906 -86.453125 11.804688 -85.359375 8.140625 -84.046875 C 5.941406 -88.296875 4.84375 -92.988281 4.84375 -98.125 C 4.84375 -99.582031 5.132812 -101.046875 5.71875 -102.515625 C 6.300781 -103.984375 7.035156 -105.082031 7.921875 -105.8125 C 9.828125 -107.28125 13.785156 -108.710938 19.796875 -110.109375 C 25.804688 -111.503906 32.773438 -112.203125 40.703125 -112.203125 C 50.816406 -112.203125 57.960938 -110.179688 62.140625 -106.140625 C 66.328125 -102.109375 68.421875 -95.179688 68.421875 -85.359375 L 68.421875 -75.015625 C 68.421875 -39.085938 68.050781 -15.695312 67.3125 -4.84375 C 59.394531 -0.144531 48.835938 2.203125 35.640625 2.203125 Z M 37.40625 -17.8125 C 40.1875 -17.8125 42.238281 -18.546875 43.5625 -20.015625 C 43.851562 -23.390625 44 -32.925781 44 -48.625 C 42.53125 -49.9375 40.550781 -50.59375 38.0625 -50.59375 C 35.414062 -50.59375 33.429688 -49.3125 32.109375 -46.75 C 30.796875 -44.1875 30.140625 -39.53125 30.140625 -32.78125 C 30.140625 -27.351562 30.648438 -23.5 31.671875 -21.21875 C 32.703125 -18.945312 34.613281 -17.8125 37.40625 -17.8125 Z M 37.40625 -17.8125 "/></g></g></g><g fill="#945400" fill-opacity="1"><g transform="translate(81.012634, 244.499984)"><g><path d="M 7.265625 -102.296875 C 17.234375 -108.898438 27.425781 -112.203125 37.84375 -112.203125 C 43.5625 -112.203125 47.445312 -111.359375 49.5 -109.671875 C 51.550781 -107.984375 52.578125 -105.160156 52.578125 -101.203125 C 52.578125 -96.359375 51.769531 -91.664062 50.15625 -87.125 C 47.8125 -88.289062 45.097656 -88.875 42.015625 -88.875 C 40.546875 -88.875 38.929688 -88.582031 37.171875 -88 C 35.421875 -87.414062 33.8125 -86.535156 32.34375 -85.359375 L 32.125 -4.40625 C 32.125 -2.789062 31.753906 -1.722656 31.015625 -1.203125 C 30.285156 -0.691406 27.898438 -0.363281 23.859375 -0.21875 C 19.828125 -0.0703125 14.296875 0 7.265625 0 Z M 7.265625 -102.296875 "/></g></g></g><g fill="#945400" fill-opacity="1"><g transform="translate(135.791915, 244.499984)"><g><path d="M 7.265625 -150.921875 C 7.265625 -154.585938 7.921875 -157.113281 9.234375 -158.5 C 10.554688 -159.894531 12.71875 -160.773438 15.71875 -161.140625 C 18.726562 -161.515625 24.125 -161.703125 31.90625 -161.703125 L 31.90625 -105.8125 C 39.382812 -110.070312 47.226562 -112.203125 55.4375 -112.203125 C 62.1875 -112.203125 66.914062 -110.40625 69.625 -106.8125 C 72.34375 -103.21875 73.703125 -98.78125 73.703125 -93.5 C 73.703125 -86.164062 72.378906 -79.675781 69.734375 -74.03125 C 67.097656 -68.382812 64.09375 -63.800781 60.71875 -60.28125 C 71.132812 -52.65625 76.488281 -38.796875 76.78125 -18.703125 C 76.78125 -13.859375 76.5625 -8.867188 76.125 -3.734375 C 75.976562 -2.421875 75.460938 -1.539062 74.578125 -1.09375 C 73.703125 -0.65625 70.988281 -0.363281 66.4375 -0.21875 C 61.894531 -0.0703125 55.8125 0 48.1875 0 C 48.914062 -8.363281 49.28125 -15.84375 49.28125 -22.4375 C 49.28125 -40.039062 46.050781 -48.84375 39.59375 -48.84375 C 37.832031 -48.84375 36.109375 -48.328125 34.421875 -47.296875 C 32.742188 -46.273438 31.90625 -45.691406 31.90625 -45.546875 L 31.90625 -4.40625 C 31.90625 -2.789062 31.535156 -1.722656 30.796875 -1.203125 C 30.066406 -0.691406 27.71875 -0.363281 23.75 -0.21875 C 19.789062 -0.0703125 14.296875 0 7.265625 0 Z M 31.90625 -61.8125 C 36.738281 -64.601562 40.328125 -67.757812 42.671875 -71.28125 C 45.023438 -74.800781 46.203125 -79.128906 46.203125 -84.265625 C 46.203125 -88.367188 44.734375 -90.421875 41.796875 -90.421875 C 38.273438 -90.421875 34.976562 -88.296875 31.90625 -84.046875 Z M 31.90625 -61.8125 "/></g></g></g><g fill="#945400" fill-opacity="1"><g transform="translate(213.010885, 244.499984)"><g><path d="M 44.4375 -21.5625 C 51.476562 -21.5625 59.253906 -23.613281 67.765625 -27.71875 C 69.078125 -23.320312 69.734375 -17.894531 69.734375 -11.4375 C 69.734375 -7.1875 66.765625 -3.847656 60.828125 -1.421875 C 54.890625 0.992188 47.445312 2.203125 38.5 2.203125 C 27.5 2.203125 19.066406 -1.570312 13.203125 -9.125 C 7.335938 -16.675781 4.40625 -30.207031 4.40625 -49.71875 C 4.40625 -66.4375 6.125 -79.414062 9.5625 -88.65625 C 13.007812 -97.894531 17.519531 -104.128906 23.09375 -107.359375 C 28.664062 -110.585938 35.34375 -112.203125 43.125 -112.203125 C 61.894531 -112.203125 71.28125 -100.25 71.28125 -76.34375 C 71.28125 -63.582031 70.253906 -53.164062 68.203125 -45.09375 C 59.835938 -43.332031 47.078125 -42.304688 29.921875 -42.015625 C 30.359375 -34.535156 31.601562 -29.253906 33.65625 -26.171875 C 35.707031 -23.097656 39.300781 -21.5625 44.4375 -21.5625 Z M 40.046875 -91.078125 C 36.671875 -91.078125 34.210938 -88.65625 32.671875 -83.8125 C 31.128906 -78.976562 30.210938 -71.425781 29.921875 -61.15625 C 38.128906 -61.15625 43.628906 -61.816406 46.421875 -63.140625 C 47.148438 -65.335938 47.515625 -69.148438 47.515625 -74.578125 C 47.515625 -81.328125 47 -85.765625 45.96875 -87.890625 C 44.945312 -90.015625 42.972656 -91.078125 40.046875 -91.078125 Z M 40.046875 -91.078125 "/></g></g></g><g fill="#945400" fill-opacity="1"><g transform="translate(288.909836, 244.499984)"><g><path d="M 39.15625 2.203125 C 30.507812 2.203125 23.765625 0.773438 18.921875 -2.078125 C 14.078125 -4.941406 10.445312 -10.476562 8.03125 -18.6875 C 5.613281 -26.90625 4.40625 -39.082031 4.40625 -55.21875 C 4.40625 -93.207031 16.578125 -112.203125 40.921875 -112.203125 C 49.128906 -112.203125 55.691406 -110.550781 60.609375 -107.25 C 65.523438 -103.945312 69.191406 -98.257812 71.609375 -90.1875 C 74.023438 -82.125 75.234375 -70.757812 75.234375 -56.09375 C 75.234375 -35.414062 72.265625 -20.53125 66.328125 -11.4375 C 60.390625 -2.34375 51.332031 2.203125 39.15625 2.203125 Z M 39.8125 -18.046875 C 41.570312 -18.046875 43.039062 -18.882812 44.21875 -20.5625 C 45.394531 -22.25 46.382812 -25.84375 47.1875 -31.34375 C 48 -36.84375 48.40625 -44.875 48.40625 -55.4375 C 48.40625 -66.144531 48.179688 -74.03125 47.734375 -79.09375 C 47.296875 -84.15625 46.488281 -87.5625 45.3125 -89.3125 C 44.144531 -91.070312 42.390625 -91.953125 40.046875 -91.953125 C 37.253906 -91.953125 35.085938 -89.457031 33.546875 -84.46875 C 32.003906 -79.488281 31.234375 -69.8125 31.234375 -55.4375 C 31.234375 -44.4375 31.5625 -36.257812 32.21875 -30.90625 C 32.882812 -25.550781 33.800781 -22.066406 34.96875 -20.453125 C 36.144531 -18.847656 37.757812 -18.046875 39.8125 -18.046875 Z M 39.8125 -18.046875 "/></g></g></g></svg>